# xmcd
#
# Track frame offsets:
#	150
#	18235
#	34315
#	52437
#	68551
#	88400
#	105223
#	122005
#	135540
#	151087
#	165832
#	177945
#	196332
#	211331
#	229968
#	247640
#	264410
#	281505
#	299499
#	315169
#
# Disc length: 4406 seconds
#
# Revision: 1
# Processed by: cddbd v1.5PL3 Copyright (c) Steve Scherf et al.
# Submitted via: audiograbber 1.83.01
#
DISCID=0d113414
DTITLE=Various Artist - Eurohit 2000.
DYEAR=1900
DGENRE=
TTITLE0=Eiffel 65 and Kim Lukas. - All I Really Want.
TTITLE1=Backstreet Boys. - I Want It That Way. (Dance Club Rmx)
TTITLE2=Wamdue Project. - You're The Reason.
TTITLE3=Fintelligeus. - Voittamatow.
TTITLE4=Grant Nelson and J. McLain. - Step To Me.
TTITLE5=Dj Bobo. - Music Is My Life.
TTITLE6=Big Time Charlie. - On The Run.
TTITLE7=Precious. - Say It Again.
TTITLE8=Wonda Louis. - Work It Up.
TTITLE9=Alexia. - Happy.
TTITLE10=Justin Earp. - Oh-La La La.
TTITLE11=Jason Nevis vs. Fast Eddie. - Throw Your Hands Up.
TTITLE12=Marisa Turner. - Who's Gonna Kiss.
TTITLE13=Bomfunk MC's. - Freestyler.
TTITLE14=Miss Mukupa. - Poplife 2000.
TTITLE15=Earth, Wind and Fire. - September '99.
TTITLE16=Camilla. - At The Weekend.
TTITLE17=Farell. - This Is My Reality.
TTITLE18=Soulsearcher. - Can't Get Enough.
TTITLE19=Doolally. - Straight From The Heart.
EXTD=
EXTT0=
EXTT1=
EXTT2=
EXTT3=
EXTT4=
EXTT5=
EXTT6=
EXTT7=
EXTT8=
EXTT9=
EXTT10=
EXTT11=
EXTT12=
EXTT13=
EXTT14=
EXTT15=
EXTT16=
EXTT17=
EXTT18=
EXTT19=
PLAYORDER=
